<svg width="16" height="16" viewBox="0 0 16 16" fill="none" xmlns="http://www.w3.org/2000/svg">
<path fill-rule="evenodd" clip-rule="evenodd" d="M0.833313 8.00004C0.833313 4.042 4.04194 0.833374 7.99998 0.833374C11.0745 0.833374 13.6969 2.7695 14.7144 5.48905L14.7164 5.49437C15.0075 6.27432 15.1666 7.1186 15.1666 8.00004C15.1666 8.8812 15.0076 9.72523 14.7167 10.505L14.7141 10.5118C13.6965 13.2309 11.0743 15.1667 7.99998 15.1667C4.04194 15.1667 0.833313 11.958 0.833313 8.00004ZM9.68275 2.06577C11.334 2.53309 12.7036 3.67102 13.4786 5.16671H10.8421C10.6468 4.32254 10.3862 3.58843 10.1257 2.98498C9.97408 2.63367 9.82221 2.32596 9.68275 2.06577ZM8.39108 1.84558C8.26175 1.83748 8.13135 1.83337 7.99998 1.83337C7.86862 1.83337 7.73821 1.83748 7.60889 1.84558C7.56477 1.91224 7.5104 1.99713 7.44843 2.0994C7.27111 2.39202 7.0321 2.82586 6.79238 3.38127C6.57564 3.88341 6.35903 4.48325 6.18664 5.16671H9.81332C9.64093 4.48325 9.42431 3.8834 9.20758 3.38126C8.96786 2.82586 8.72885 2.39201 8.55153 2.0994C8.48956 1.99713 8.43519 1.91223 8.39108 1.84558ZM10.0197 6.16671H5.9803C5.88855 6.73624 5.83331 7.34932 5.83331 7.99997C5.83331 8.65068 5.88856 9.26381 5.98032 9.83337H10.0196C10.1114 9.26381 10.1666 8.65068 10.1666 7.99997C10.1666 7.34931 10.1114 6.73623 10.0197 6.16671ZM9.81329 10.8334H6.18667C6.35905 11.5168 6.57566 12.1166 6.79238 12.6187C7.0321 13.1741 7.27111 13.608 7.44843 13.9006C7.51042 14.0029 7.5648 14.0878 7.60893 14.1545C7.73824 14.1626 7.86863 14.1667 7.99998 14.1667C8.13133 14.1667 8.26172 14.1626 8.39103 14.1545C8.43515 14.0878 8.48953 14.0029 8.55153 13.9006C8.72885 13.608 8.96786 13.1741 9.20758 12.6187C9.4243 12.1166 9.64091 11.5168 9.81329 10.8334ZM9.6827 13.9343C9.82217 13.6741 9.97406 13.3664 10.1257 13.015C10.3862 12.4116 10.6467 11.6775 10.842 10.8334H13.4786C12.7035 12.3291 11.3339 13.467 9.6827 13.9343ZM11.0315 9.83337C11.1164 9.25998 11.1666 8.64721 11.1666 7.99997C11.1666 7.35278 11.1164 6.74006 11.0315 6.16671H13.8895C14.0696 6.74587 14.1666 7.36163 14.1666 8.00004C14.1666 8.63846 14.0696 9.25421 13.8895 9.83337H11.0315ZM5.87425 2.98498C5.61379 3.58844 5.35319 4.32254 5.15788 5.16671H2.52131C3.29639 3.67102 4.66598 2.53309 6.31721 2.06577C6.17776 2.32595 6.02588 2.63367 5.87425 2.98498ZM4.96843 6.16671H2.11042C1.93033 6.74587 1.83331 7.36163 1.83331 8.00004C1.83331 8.63846 1.93033 9.25421 2.11042 9.83337H4.96845C4.88357 9.25998 4.83331 8.64721 4.83331 7.99997C4.83331 7.35279 4.88356 6.74006 4.96843 6.16671ZM2.52132 10.8334H5.15791C5.35321 11.6775 5.6138 12.4116 5.87425 13.015C6.0259 13.3664 6.17779 13.6741 6.31726 13.9343C4.66601 13.467 3.29641 12.3291 2.52132 10.8334Z" fill="#0068FA"/>
</svg>
